<?xml version="1.0" encoding="UTF-8"?>
<svg version="1.1" xmlns="http://www.w3.org/2000/svg" width="162" height="162">
<path d="M0 0 C1.09893837 -0.00744736 1.09893837 -0.00744736 2.22007751 -0.01504517 C4.62963829 -0.0295774 7.03913317 -0.03645511 9.44873047 -0.04199219 C10.69227106 -0.04623325 10.69227106 -0.04623325 11.96093369 -0.05056 C16.3514004 -0.06551931 20.74183456 -0.07476833 25.13232422 -0.07910156 C29.63753423 -0.08456991 34.14243954 -0.10857257 38.6475544 -0.13707352 C42.13771394 -0.15582422 45.62780204 -0.16091214 49.11800766 -0.16243744 C50.77717624 -0.1654384 52.43634436 -0.17337897 54.0954628 -0.18662262 C71.55456961 -0.31599929 85.05866981 2.40159849 98.14794922 14.71972656 C109.71711087 27.03782883 111.05609443 42.28242058 110.93701172 58.32519531 C110.93716714 60.05146343 110.93866321 61.77773188 110.94142151 63.5039978 C110.94279649 67.09950427 110.9303975 70.69460746 110.9074707 74.29003906 C110.87904576 78.87032595 110.88184724 83.44994643 110.89456081 88.03028297 C110.90155443 91.58734714 110.89368763 95.1442605 110.88130379 98.70130539 C110.87682801 100.38918858 110.87641809 102.07708818 110.88036919 103.76497269 C110.90119057 120.47569549 108.48617391 133.38334381 96.80029297 145.83300781 C87.73647709 154.77677315 78.0996324 159.29320624 65.37451172 159.33813477 C64.56414963 159.34470596 63.75378754 159.35127716 62.91886902 159.35804749 C60.23871763 159.37774389 57.55862234 159.38943844 54.87841797 159.39941406 C53.95929626 159.40348959 53.04017456 159.40756512 52.09320068 159.41176414 C47.22294338 159.43261496 42.35271413 159.44691778 37.48242188 159.45629883 C32.47711803 159.46732707 27.47226318 159.5016882 22.46711731 159.54147053 C18.59779088 159.567755 14.72856921 159.57600139 10.85916138 159.57958031 C9.01576729 159.5844202 7.17237705 159.5959591 5.32907104 159.6146183 C-10.88250242 159.76844844 -23.54442645 157.63017447 -35.78173828 146.05957031 C-44.44340378 136.89601392 -48.86477679 126.32850331 -48.84960938 113.73828125 C-48.8563266 112.92587479 -48.86304382 112.11346832 -48.8699646 111.27644348 C-48.88886201 108.60773491 -48.8928648 105.93927901 -48.89501953 103.27050781 C-48.90145391 101.40114237 -48.90818274 99.53177792 -48.91519165 97.66241455 C-48.92714432 93.74871488 -48.93087462 89.83510334 -48.9296875 85.92138672 C-48.92948459 80.93061045 -48.95676651 75.9404054 -48.99123192 70.94976425 C-49.01357944 67.08904476 -49.01752262 63.22846094 -49.01646805 59.36768341 C-49.01881297 57.52905563 -49.02757332 55.69042348 -49.04313278 53.85186005 C-49.15399992 39.39666503 -47.35317747 29.04765741 -38.55908203 17.16113281 C-37.69283203 15.86175781 -37.69283203 15.86175781 -36.80908203 14.53613281 C-26.89692898 4.07330459 -14.09663039 0.07300773 0 0 Z " fill="#E4A525" transform="translate(50.55908203125,0.8388671875)"/>
<path d="M0 0 C3.34314262 1.71918746 3.34314262 1.71918746 7 1.25 C7.763125 0.79625 8.52625 0.3425 9.3125 -0.125 C15.85869968 -2.80299078 21.38656765 -3.264246 27.984375 -0.6953125 C33.62318429 2.27102536 37.78995137 6.84771003 42.1875 11.375 C43.46753906 12.65697266 43.46753906 12.65697266 44.7734375 13.96484375 C50.59949785 19.87387015 53.59446708 23.10318445 53.6875 31.625 C53.71585937 32.79546875 53.74421875 33.9659375 53.7734375 35.171875 C52.69061391 43.87116959 47.46758113 49.29979261 41.40625 55.2421875 C40.64453491 56.00298615 39.88281982 56.76378479 39.09802246 57.54763794 C37.49570142 59.14394709 35.88855257 60.73542345 34.27685547 62.32226562 C31.80960637 64.75285063 29.35888977 67.19921354 26.91015625 69.6484375 C25.34729707 71.20147028 23.78352619 72.75358624 22.21875 74.3046875 C21.48636108 75.03485077 20.75397217 75.76501404 19.99938965 76.51730347 C19.31187622 77.19205719 18.62436279 77.86681091 17.91601562 78.56201172 C17.31519165 79.1552121 16.71436768 79.74841248 16.09533691 80.35958862 C11.89624107 83.92882009 8.16651907 84.36087257 2.79296875 84.265625 C-1.28332089 83.62368962 -2.94278217 81.90122735 -5.6875 78.875 C-6.0175 77.885 -6.3475 76.895 -6.6875 75.875 C-7.63625 75.25625 -8.585 74.6375 -9.5625 74 C-12.8382909 71.77246219 -13.70207882 70.1840353 -15.6875 66.875 C-17.68121825 65.53229179 -19.6809562 64.19846506 -21.6875 62.875 C-22.35416667 61.54166667 -23.02083333 60.20833333 -23.6875 58.875 C-24.656875 58.235625 -25.62625 57.59625 -26.625 56.9375 C-29.90562934 54.72809656 -31.20091481 53.50887491 -32.6875 49.875 C-33.40264366 43.43870709 -32.51477598 41.21738364 -28.6875 35.875 C-26.99944399 34.03200005 -25.26190618 32.23342471 -23.484375 30.4765625 C-23.0017218 29.9967392 -22.5190686 29.51691589 -22.02178955 29.02255249 C-20.49837521 27.51021944 -18.96811545 26.00504085 -17.4375 24.5 C-16.39537007 23.46791548 -15.35369895 22.43536746 -14.3125 21.40234375 C-11.77611021 18.88785404 -9.23353674 16.37972561 -6.6875 13.875 C-3.88912708 15.14623615 -1.89431318 16.43702503 0.22265625 18.66015625 C0.73763672 19.19060547 1.25261719 19.72105469 1.78320312 20.26757812 C2.30849609 20.81865234 2.83378906 21.36972656 3.375 21.9375 C7.26673315 26.22243563 7.26673315 26.22243563 12.3125 28.875 C9.92154675 24.37634231 6.85276074 21.14578175 3.25 17.625 C2.70794922 17.08359375 2.16589844 16.5421875 1.60742188 15.984375 C-1.90696223 12.50908788 -3.91312057 10.71771193 -8.84375 10.40234375 C-13.74340292 10.46417831 -16.01554511 12.10809941 -19.40625 15.50976562 C-19.9940625 16.14591797 -20.581875 16.78207031 -21.1875 17.4375 C-21.80625 18.04658203 -22.425 18.65566406 -23.0625 19.28320312 C-27.04993571 23.41492105 -28.12613363 26.05342279 -28.6875 31.875 C-30.31640625 34.08984375 -30.31640625 34.08984375 -32.25 35.8125 C-33.21099609 36.69228516 -33.21099609 36.69228516 -34.19140625 37.58984375 C-34.68511719 38.01394531 -35.17882813 38.43804687 -35.6875 38.875 C-37.625 38.125 -37.625 38.125 -39.6875 36.875 C-40.83446319 34.01679226 -40.9094118 31.0609275 -41 28 C-41.03738281 27.17757812 -41.07476562 26.35515625 -41.11328125 25.5078125 C-39.99262158 18.57822884 -33.66618202 13.4557342 -28.9375 8.6875 C-28.25945313 7.97658203 -27.58140625 7.26566406 -26.8828125 6.53320312 C-19.25652167 -1.17283029 -10.30483502 -5.03299062 0 0 Z " fill="#FDFBF6" transform="translate(74.6875,40.125)"/>
<path d="M0 0 C5.8051285 0.10311063 8.54765264 3.5820671 12.4375 7.5 C13.33726563 8.26054688 14.23703125 9.02109375 15.1640625 9.8046875 C16.07929687 10.61164062 16.99453125 11.41859375 17.9375 12.25 C18.7934375 12.98734375 19.649375 13.7246875 20.53125 14.484375 C23.41137512 19.0406385 23.40663382 23.24785009 22.4375 28.5 C20.42374908 31.96969184 17.77061556 34.50555592 14.8515625 37.23046875 C14.07944427 37.9917659 13.30732605 38.75306305 12.5118103 39.53742981 C10.05340123 41.94776285 7.55887067 44.31657389 5.0625 46.6875 C3.39083118 48.32111747 1.7215317 49.95716321 0.0546875 51.59570312 C-2.99086645 54.56527281 -6.03791015 57.53268392 -9.12255859 60.46166992 C-9.73988861 61.05026291 -10.35721863 61.6388559 -10.99325562 62.24528503 C-12.5625 63.5 -12.5625 63.5 -14.5625 63.5 C-14.14935438 59.05073948 -11.05788473 56.65899896 -8 53.75 C-7.21979492 52.99009766 -7.21979492 52.99009766 -6.42382812 52.21484375 C-5.14339916 50.96965595 -3.85382446 49.73388498 -2.5625 48.5 C-3.8825 46.85 -5.2025 45.2 -6.5625 43.5 C-11.23015155 45.43510839 -14.04916598 48.97478285 -17.44140625 52.6015625 C-19.5625 54.5 -19.5625 54.5 -22.5625 54.5 C-22.08840352 50.18269587 -19.52853297 48.16352539 -16.5 45.25 C-15.58089844 44.35796875 -14.66179687 43.4659375 -13.71484375 42.546875 C-13.00457031 41.87140625 -12.29429688 41.1959375 -11.5625 40.5 C-12.49434612 38.09273085 -13.10790602 36.77936502 -15.3359375 35.41015625 C-18.43456194 35.53518846 -19.66583738 37.15234447 -21.7265625 39.32226562 C-22.44972656 40.12180664 -22.44972656 40.12180664 -23.1875 40.9375 C-24.94549952 42.83660212 -26.72382593 44.67591858 -28.5625 46.5 C-29.2225 46.5 -29.8825 46.5 -30.5625 46.5 C-30.145187 41.57215495 -28.01264073 39.5222855 -24.5 36.1875 C-23.58089844 35.30449219 -22.66179687 34.42148438 -21.71484375 33.51171875 C-21.00457031 32.84785156 -20.29429688 32.18398437 -19.5625 31.5 C-20.8825 29.85 -22.2025 28.2 -23.5625 26.5 C-28.23015155 28.43510839 -31.04916598 31.97478285 -34.44140625 35.6015625 C-36.5625 37.5 -36.5625 37.5 -39.5625 37.5 C-37.96319566 33.45864413 -35.07589591 30.82092848 -32 27.875 C-28.33535984 24.53597098 -28.33535984 24.53597098 -25.5625 20.5 C-22.36820599 21.90323291 -20.32523561 23.60199087 -17.875 26.0625 C-14.27362007 29.26223905 -11.56737211 30.58977995 -6.7421875 30.7734375 C-2.8697722 30.28765063 -0.6803807 28.85431808 2.4375 26.5 C5.0552548 22.32904401 4.98608749 18.28299721 4.4375 13.5 C2.65190383 9.27095643 -0.01724468 7.29888578 -3.5625 4.5 C-4.0575 3.015 -4.0575 3.015 -4.5625 1.5 C-3.5625 0.5 -3.5625 0.5 0 0 Z " fill="#E5A627" transform="translate(93.5625,49.5)"/>
<path d="M0 0 C1.09893837 -0.00744736 1.09893837 -0.00744736 2.22007751 -0.01504517 C4.62963829 -0.0295774 7.03913317 -0.03645511 9.44873047 -0.04199219 C10.69227106 -0.04623325 10.69227106 -0.04623325 11.96093369 -0.05056 C16.3514004 -0.06551931 20.74183456 -0.07476833 25.13232422 -0.07910156 C29.63753423 -0.08456991 34.14243954 -0.10857257 38.6475544 -0.13707352 C42.13771394 -0.15582422 45.62780204 -0.16091214 49.11800766 -0.16243744 C50.77717624 -0.1654384 52.43634436 -0.17337897 54.0954628 -0.18662262 C71.57211181 -0.31612928 85.0120755 2.4246605 98.14404297 14.70019531 C104.19522396 21.18360352 109.44091797 30.13735502 109.44091797 39.16113281 C108.78091797 39.16113281 108.12091797 39.16113281 107.44091797 39.16113281 C107.44091797 38.50113281 107.44091797 37.84113281 107.44091797 37.16113281 C106.78091797 37.16113281 106.12091797 37.16113281 105.44091797 37.16113281 C105.11478516 36.49726562 104.78865234 35.83339844 104.45263672 35.14941406 C103.1308854 32.47861863 101.78666284 29.81989928 100.44091797 27.16113281 C99.98716797 26.23300781 99.53341797 25.30488281 99.06591797 24.34863281 C97.08349717 21.67998943 94.84327284 20.15446991 92.06201172 18.37207031 C90.44091797 17.16113281 90.44091797 17.16113281 88.44091797 14.16113281 C79.78764635 7.94159384 69.9205159 6.02310411 59.48291016 5.98413086 C58.32063148 5.97427406 58.32063148 5.97427406 57.13487244 5.96421814 C54.58584475 5.94460478 52.03687563 5.93284972 49.48779297 5.92285156 C48.61213936 5.91877604 47.73648575 5.91470051 46.83429718 5.91050148 C42.19975526 5.88969222 37.5652425 5.87536805 32.93066406 5.8659668 C28.16510655 5.85490982 23.40001686 5.82050334 18.63462448 5.7807951 C14.95067525 5.75455029 11.26683629 5.74626804 7.58280182 5.74268532 C5.82706796 5.73784013 4.07133833 5.72628573 2.31569672 5.70764732 C-6.95784113 5.61530989 -15.19606819 5.59848864 -23.55908203 10.16113281 C-24.67283203 10.69738281 -25.78658203 11.23363281 -26.93408203 11.78613281 C-27.80033203 12.23988281 -28.66658203 12.69363281 -29.55908203 13.16113281 C-30.30158203 13.42925781 -31.04408203 13.69738281 -31.80908203 13.97363281 C-33.86058995 15.1002146 -33.86058995 15.1002146 -34.43408203 17.97363281 C-35.95230147 22.27525456 -37.86807351 23.54666845 -41.55908203 26.16113281 C-42.21908203 26.16113281 -42.87908203 26.16113281 -43.55908203 26.16113281 C-40.07839928 16.62272336 -33.32077322 10.06411407 -24.55908203 5.16113281 C-16.4133556 1.51990456 -8.92254479 0.04621067 0 0 Z " fill="#E9BD5F" transform="translate(50.55908203125,0.8388671875)"/>
<path d="M0 0 C0.77134781 -0.0049649 1.54269562 -0.00992981 2.3374176 -0.01504517 C4.88771464 -0.02963919 7.43794932 -0.03646671 9.98828125 -0.04199219 C11.76985677 -0.04774903 13.55143229 -0.05350669 15.33300781 -0.05926514 C19.07210579 -0.06976945 22.81118232 -0.07561481 26.55029297 -0.07910156 C31.31338431 -0.08456348 36.07618649 -0.10854429 40.83918762 -0.13707352 C44.52322174 -0.15581815 48.20718812 -0.1609119 51.89126587 -0.16243744 C53.64533049 -0.16544149 55.39939457 -0.17339288 57.15341187 -0.18662262 C80.14146766 -0.34753321 80.14146766 -0.34753321 90.30078125 6.16113281 C87.31788291 6.16113281 85.61574223 5.66391375 82.83203125 4.70410156 C77.11778279 2.95086624 71.75080883 2.60173904 65.80078125 2.47363281 C64.67800781 2.44092285 63.55523437 2.40821289 62.3984375 2.37451172 C51.0353012 2.09043331 39.66694388 2.05922975 28.30078125 2.03613281 C26.93481812 2.03197861 26.93481812 2.03197861 25.54125977 2.02774048 C-2.77912061 1.53411858 -2.77912061 1.53411858 -26.44921875 15.41113281 C-40.02203556 29.22113093 -39.85757898 45.21088106 -39.8671875 63.57519531 C-39.87041009 65.04006989 -39.87377487 66.50494417 -39.87727356 67.96981812 C-39.88321862 71.02057644 -39.88511803 74.07130662 -39.88452148 77.12207031 C-39.88441958 81.00970122 -39.89812194 84.89715069 -39.91529369 88.78473854 C-39.92646362 91.80295628 -39.92843924 94.82113063 -39.92791176 97.83936691 C-39.92908242 99.27213547 -39.9334521 100.7049055 -39.94124413 102.13765335 C-39.97914547 109.81888326 -39.6707696 116.72941817 -37.69921875 124.16113281 C-37.57421875 127.22363281 -37.57421875 127.22363281 -37.69921875 129.16113281 C-44.11812738 122.74222418 -43.10428115 111.78522692 -43.14170837 103.35072327 C-43.1396566 101.55966059 -43.1366683 99.76859877 -43.1328125 97.97753906 C-43.13738186 96.11246044 -43.14268966 94.2473835 -43.1486969 92.38230896 C-43.15759656 88.48649221 -43.15524074 84.5908808 -43.14526367 80.69506836 C-43.13377592 75.72788666 -43.15399869 70.76141611 -43.18318081 65.79432774 C-43.20161601 61.94646276 -43.20123586 58.09876594 -43.19554329 54.25086784 C-43.19539098 52.42062317 -43.20135968 50.59036643 -43.21383476 48.76016426 C-43.33144846 28.68051323 -43.33144846 28.68051323 -38.69921875 21.16113281 C-36.48809632 19.44748411 -34.22639224 18.42471956 -31.69921875 17.16113281 C-30.48722848 15.5338586 -30.48722848 15.5338586 -29.57421875 13.66113281 C-25.61176282 6.2645484 -17.74365278 3.1570151 -10.01660156 0.60552979 C-6.68614067 -0.03314188 -3.37821985 0.00521472 0 0 Z " fill="#DFB446" transform="translate(44.69921875,5.8388671875)"/>
<path d="M0 0 C1.64623339 0.0037362 3.29246902 0.0065803 4.93870544 0.00857544 C9.24425537 0.01616417 13.54966757 0.03577104 17.85516357 0.0579834 C22.25954323 0.07854511 26.66394542 0.08759911 31.06835938 0.09765625 C39.69016694 0.11902202 48.31186315 0.15309956 56.93359375 0.1953125 C56.93359375 1.1853125 56.93359375 2.1753125 56.93359375 3.1953125 C57.57167969 3.24429687 58.20976563 3.29328125 58.8671875 3.34375 C60.10662109 3.45589844 60.10662109 3.45589844 61.37109375 3.5703125 C62.19480469 3.63992188 63.01851563 3.70953125 63.8671875 3.78125 C64.89005859 3.98621094 64.89005859 3.98621094 65.93359375 4.1953125 C66.42859375 5.1853125 66.42859375 5.1853125 66.93359375 6.1953125 C65.66193359 6.03522705 64.39027344 5.8751416 63.08007812 5.71020508 C54.9396484 4.90238093 46.76212519 4.98948452 38.58984375 4.95703125 C37.71785843 4.95295572 36.84587311 4.9488802 35.94746399 4.94468117 C31.33883919 4.92394187 26.73024316 4.90958373 22.12158203 4.90014648 C17.38752785 4.8890578 12.65394044 4.85459471 7.92005157 4.81497478 C4.25326714 4.78874101 0.58659352 4.78044908 -3.08027649 4.77686501 C-4.82484622 4.77202306 -6.5694118 4.76047814 -8.31388855 4.74182701 C-20.56458487 4.53831948 -20.56458487 4.53831948 -32.13317871 8.23762512 C-34.09793451 9.21093105 -35.92839943 9.73821868 -38.06640625 10.1953125 C-28.49528264 -0.97099838 -13.41929533 -0.08990011 0 0 Z " fill="#E5C168" transform="translate(61.06640625,1.8046875)"/>
<path d="M0 0 C1.09893837 -0.00744736 1.09893837 -0.00744736 2.22007751 -0.01504517 C4.62963829 -0.0295774 7.03913317 -0.03645511 9.44873047 -0.04199219 C10.69227106 -0.04623325 10.69227106 -0.04623325 11.96093369 -0.05056 C16.3514004 -0.06551931 20.74183456 -0.07476833 25.13232422 -0.07910156 C29.63753423 -0.08456991 34.14243954 -0.10857257 38.6475544 -0.13707352 C42.13771394 -0.15582422 45.62780204 -0.16091214 49.11800766 -0.16243744 C50.77717624 -0.1654384 52.43634436 -0.17337897 54.0954628 -0.18662262 C63.46302353 -0.25603876 72.54266229 -0.24521425 81.44091797 3.16113281 C82.43091797 4.15113281 82.43091797 4.15113281 83.44091797 5.16113281 C81.44137051 5.20367638 79.44050161 5.20194064 77.44091797 5.16113281 C76.94591797 4.66613281 76.94591797 4.66613281 76.44091797 4.16113281 C74.92622348 3.92920417 73.40337235 3.74898043 71.87841797 3.59863281 C70.63898438 3.47294922 70.63898438 3.47294922 69.37451172 3.34472656 C68.73642578 3.28414063 68.09833984 3.22355469 67.44091797 3.16113281 C67.44091797 2.50113281 67.44091797 1.84113281 67.44091797 1.16113281 C57.9478157 1.24576514 48.45488806 1.340736 38.96202183 1.4486599 C34.55340747 1.49846159 30.14481521 1.54479218 25.73608398 1.58300781 C21.47603036 1.62006544 17.21616926 1.66647905 12.95628166 1.71919632 C11.33655129 1.73763206 9.71677982 1.7527793 8.09698677 1.76447678 C-5.21464237 1.86399011 -17.67926511 2.47859458 -28.29736328 11.66503906 C-29.40457548 12.81144461 -30.4852603 13.98339285 -31.55908203 15.16113281 C-32.21908203 15.16113281 -32.87908203 15.16113281 -33.55908203 15.16113281 C-33.76533203 16.04800781 -33.97158203 16.93488281 -34.18408203 17.84863281 C-35.95981236 22.1265286 -37.8094377 23.50513475 -41.55908203 26.16113281 C-42.21908203 26.16113281 -42.87908203 26.16113281 -43.55908203 26.16113281 C-40.07839928 16.62272336 -33.32077322 10.06411407 -24.55908203 5.16113281 C-16.4133556 1.51990456 -8.92254479 0.04621067 0 0 Z " fill="#EED79B" transform="translate(50.55908203125,0.8388671875)"/>
<path d="M0 0 C0.33 0 0.66 0 1 0 C1.06977493 10.11029817 1.12295013 20.22053824 1.15543652 30.33102894 C1.17103512 35.02668122 1.19216624 39.72216771 1.22631836 44.41772461 C1.25912026 48.95649005 1.27689658 53.49509688 1.28463173 58.03397179 C1.29013809 59.75817038 1.30088981 61.48236114 1.31719017 63.20649147 C1.51243914 84.73134129 1.51243914 84.73134129 -4 93 C-3.84660156 91.72382813 -3.69320312 90.44765625 -3.53515625 89.1328125 C-2.72881862 81.06943616 -2.63785734 72.97107211 -2.4375 64.875 C-2.3942145 63.23436615 -2.35059737 61.59374101 -2.30664062 59.953125 C-2.20060372 55.96884016 -2.09905423 51.9844643 -2 48 C-1.67 48 -1.34 48 -1 48 C-0.67 32.16 -0.34 16.32 0 0 Z " fill="#F1B650" transform="translate(160,41)"/>
<path d="M0 0 C1.09455124 3.53021715 1.10812187 6.7786432 1.08178711 10.46166992 C1.07199074 12.42972847 1.07199074 12.42972847 1.06199646 14.43754578 C1.05625547 15.13662237 1.05051449 15.83569897 1.04459953 16.5559597 C1.02714367 18.75568185 1.01688801 20.95533062 1.00868225 23.15510559 C0.98429602 29.40856878 0.94887439 35.66193367 0.90405273 41.9152832 C0.87710494 45.74540364 0.86016844 49.57546661 0.84918404 53.40566444 C0.84301753 54.85798572 0.83306744 56.31029646 0.81910515 57.76256371 C0.74583784 65.45600756 1.00108553 72.52913665 3 80 C3.125 83.0625 3.125 83.0625 3 85 C-1.30293081 80.69706919 -2.16612433 73.77903483 -2.30834961 67.88208008 C-2.29312264 66.07352598 -2.26124514 64.26505412 -2.21484375 62.45703125 C-2.20202866 61.47064163 -2.18921356 60.48425201 -2.17601013 59.4679718 C-2.13161757 56.31157199 -2.06576923 53.15601882 -2 50 C-1.96863614 47.89113617 -1.93885014 45.78224828 -1.91064453 43.67333984 C-1.83595289 38.40405966 -1.73764504 33.13559746 -1.62768555 27.86694336 C-1.5610434 24.61645396 -1.50215398 21.36587419 -1.44335938 18.11523438 C-1.40150696 16.03905307 -1.35920741 13.96288071 -1.31640625 11.88671875 C-1.29969376 10.91925217 -1.28298126 9.95178558 -1.26576233 8.95500183 C-1.24581711 8.06839371 -1.22587189 7.18178558 -1.20532227 6.26831055 C-1.18977798 5.48940964 -1.1742337 4.71050873 -1.15821838 3.90800476 C-1 2 -1 2 0 0 Z " fill="#E1B548" transform="translate(4,50)"/>
<path d="M0 0 C0.33 0 0.66 0 1 0 C1.02701408 2.10409639 1.04640223 4.20829178 1.0625 6.3125 C1.07410156 7.48425781 1.08570313 8.65601563 1.09765625 9.86328125 C1 13 1 13 0 16 C-1.90357365 22.80723696 -2.33298399 29.33536129 -2.4140625 36.37890625 C-2.43342865 37.43158188 -2.4527948 38.48425751 -2.4727478 39.5688324 C-2.53207747 42.89997494 -2.57874133 46.23115292 -2.625 49.5625 C-2.66322272 51.83399866 -2.70227689 54.10548349 -2.7421875 56.37695312 C-2.83774015 61.91784513 -2.92292121 67.45882184 -3 73 C-3.33 73 -3.66 73 -4 73 C-4.09320028 65.10624234 -4.16401571 57.21271942 -4.20724869 49.31854534 C-4.22801169 45.65186134 -4.25611844 41.98555724 -4.30175781 38.3190918 C-4.3456244 34.77233528 -4.36922168 31.22594123 -4.37950897 27.6789341 C-4.39035921 25.68554846 -4.42151824 23.69230607 -4.45318604 21.69914246 C-4.45513818 13.68404874 -3.32941818 7.3126986 0 0 Z " fill="#DFB64A" transform="translate(6,27)"/>
<path d="M0 0 C0.33 0.66 0.66 1.32 1 2 C1.66 2 2.32 2 3 2 C3 21.47 3 40.94 3 61 C2.67 61 2.34 61 2 61 C1.98969254 60.42228348 1.97938507 59.84456696 1.96876526 59.24934387 C1.86049748 53.2308161 1.74591628 47.21243192 1.62768555 41.1940918 C1.58440167 38.94867968 1.54272199 36.70323604 1.50268555 34.45776367 C1.44482443 31.22825627 1.38117549 27.99890659 1.31640625 24.76953125 C1.29969376 23.76727005 1.28298126 22.76500885 1.26576233 21.7323761 C1.24581711 20.79177841 1.22587189 19.85118073 1.20532227 18.88208008 C1.18977798 18.05823318 1.1742337 17.23438629 1.15821838 16.38557434 C0.99024816 13.85296436 0.52119881 11.48139777 0 9 C-0.06371368 7.39696373 -0.08644214 5.79162328 -0.0625 4.1875 C-0.05347656 3.39730469 -0.04445312 2.60710938 -0.03515625 1.79296875 C-0.02355469 1.20128906 -0.01195312 0.60960937 0 0 Z " fill="#EBAC36" transform="translate(157,38)"/>
<path d="M0 0 C3.31494005 0.57277582 4.8234302 1.51612524 7.0625 4 C9.16638793 6.32153151 9.90402543 6.96800848 13 8 C14.16796875 10.14453125 14.16796875 10.14453125 15.1875 12.8125 C15.53167969 13.68519531 15.87585938 14.55789062 16.23046875 15.45703125 C17 18 17 18 17 22 C16.34 22 15.68 22 15 22 C15 21.34 15 20.68 15 20 C14.34 20 13.68 20 13 20 C12.67386719 19.33613281 12.34773437 18.67226563 12.01171875 17.98828125 C8.60189101 11.09821634 5.64819995 5.34289185 0 0 Z " fill="#E9B244" transform="translate(143,18)"/>
<path d="M0 0 C0.66 0.33 1.32 0.66 2 1 C0.37660195 2.70884005 -1.29319053 4.37446717 -3 6 C-3.66 6 -4.32 6 -5 6 C-5.20625 6.886875 -5.4125 7.77375 -5.625 8.6875 C-7.40073033 12.96539579 -9.25035567 14.34400193 -13 17 C-13.66 17 -14.32 17 -15 17 C-13.67541436 13.31334538 -12.06771225 10.42102553 -9.6875 7.3125 C-9.11386719 6.54550781 -8.54023438 5.77851563 -7.94921875 4.98828125 C-5.76196025 2.75718991 -3.92907847 1.99598481 -1 1 C-0.67 0.67 -0.34 0.34 0 0 Z " fill="#E8D18E" transform="translate(22,10)"/>
<path d="M0 0 C0.66 0.33 1.32 0.66 2 1 C1.48050781 1.47308594 0.96101563 1.94617188 0.42578125 2.43359375 C-4.02244395 6.65159657 -7.25501475 10.62370092 -9.9921875 16.1171875 C-11 18 -11 18 -13 20 C-13.27158099 10.46071775 -13.27158099 10.46071775 -10.29296875 7.0390625 C-8.2532207 5.54804074 -6.18548378 4.26506668 -4 3 C-2.65532748 2.01530026 -1.31861281 1.01933215 0 0 Z " fill="#DAB342" transform="translate(19,18)"/>
<path d="M0 0 C5.0639156 2.22318246 9.08478852 5.13112239 13 9 C13 9.33 13 9.66 13 10 C11.02 10 9.04 10 7 10 C6.7525 9.38125 6.505 8.7625 6.25 8.125 C5.17603789 5.84998472 5.17603789 5.84998472 2.9375 5 C1 4 1 4 0.25 1.875 C0.1675 1.25625 0.085 0.6375 0 0 Z " fill="#EECB7F" transform="translate(135,6)"/>
<path d="M0 0 C0.33 0 0.66 0 1 0 C0.85915204 1.79206547 0.71216299 3.58364917 0.5625 5.375 C0.48128906 6.37273438 0.40007813 7.37046875 0.31640625 8.3984375 C0 11 0 11 -1 13 C-1.66 13 -2.32 13 -3 13 C-3 14.98 -3 16.96 -3 19 C-3.33 19 -3.66 19 -4 19 C-4.53699151 11.88486245 -2.69707634 6.55004254 0 0 Z " fill="#E5C878" transform="translate(6,27)"/>
<path d="M0 0 C0 0.66 0 1.32 0 2 C-0.88042969 2.26554688 -1.76085937 2.53109375 -2.66796875 2.8046875 C-4.41013672 3.33449219 -4.41013672 3.33449219 -6.1875 3.875 C-7.33605469 4.22304687 -8.48460937 4.57109375 -9.66796875 4.9296875 C-12.50871157 5.84218871 -15.24885465 6.84980364 -18 8 C-13.28501716 2.49918668 -7.32044291 -0.73204429 0 0 Z " fill="#E4C673" transform="translate(41,4)"/>
<path d="M0 0 C3.65866294 4.32387438 5 8.34923902 5 14 C4.34 14 3.68 14 3 14 C0.96006486 9.07015675 -0.40652968 5.42039575 0 0 Z " fill="#F0C979" transform="translate(155,26)"/>
<path d="M0 0 C1.61363928 3.22727857 0.08456242 5.68923051 -1 9 C-1.62469505 10.35350594 -2.2716331 11.69934483 -3 13 C-3.33 13 -3.66 13 -4 13 C-3.91306859 11.20741442 -3.80489496 9.41584856 -3.6875 7.625 C-3.60048828 6.12839844 -3.60048828 6.12839844 -3.51171875 4.6015625 C-3.34285156 3.74304688 -3.17398437 2.88453125 -3 2 C-2.01 1.34 -1.02 0.68 0 0 Z " fill="#DDB952" transform="translate(10,25)"/>
<path d="M0 0 C3.39417765 3.12621626 5.6062718 5.56541027 7 10 C4.13904359 8.7175023 1.88634082 7.54656011 0 5 C-0.1875 2.3125 -0.1875 2.3125 0 0 Z " fill="#F1D18D" transform="translate(148,16)"/>
<path d="M0 0 C0 0.99 0 1.98 0 3 C-4.34285714 7 -4.34285714 7 -7 7 C-6.3125 4.625 -6.3125 4.625 -5 2 C-2.375 0.6875 -2.375 0.6875 0 0 Z " fill="#E6CB7F" transform="translate(14,20)"/>
<path d="M0 0 C3.51005335 1.6380249 6.45543849 3.03134491 9 6 C6.69 5.67 4.38 5.34 2 5 C1.34 3.35 0.68 1.7 0 0 Z " fill="#F2D89F" transform="translate(135,6)"/>
<path d="M0 0 C0.33 0 0.66 0 1 0 C1.36923077 5.53846154 1.36923077 5.53846154 -0.5 7.875 C-1.2425 8.431875 -1.2425 8.431875 -2 9 C-2.33 8.34 -2.66 7.68 -3 7 C-2.06421005 4.64018187 -1.06652192 2.30368736 0 0 Z " fill="#EBD699" transform="translate(6,27)"/>
</svg>
